<svg width="16" height="16" viewBox="0 0 16 16" fill="none" xmlns="http://www.w3.org/2000/svg">
<mask id="mask0_4169_1737" style="mask-type:alpha" maskUnits="userSpaceOnUse" x="0" y="0" width="16" height="16">
<rect width="16" height="16" fill="#D9D9D9"/>
</mask>
<g mask="url(#mask0_4169_1737)">
<path d="M7.99998 14C7.26065 14 6.5677 13.8609 5.92115 13.5827C5.27459 13.3044 4.70965 12.9237 4.22631 12.4403C3.74298 11.957 3.3622 11.3921 3.08398 10.7455C2.80576 10.0989 2.66665 9.406 2.66665 8.66667C2.66665 7.92733 2.80576 7.23439 3.08398 6.58783C3.3622 5.94128 3.74298 5.37633 4.22631 4.893C4.70965 4.40967 5.27459 4.02889 5.92115 3.75067C6.5677 3.47245 7.26065 3.33333 7.99998 3.33333C8.73931 3.33333 9.43226 3.47245 10.0788 3.75067C10.7254 4.02889 11.2903 4.40967 11.7736 4.893C12.257 5.37633 12.6378 5.94128 12.916 6.58783C13.1942 7.23439 13.3333 7.92733 13.3333 8.66667C13.3333 9.406 13.1942 10.0989 12.916 10.7455C12.6378 11.3921 12.257 11.957 11.7736 12.4403C11.2903 12.9237 10.7254 13.3044 10.0788 13.5827C9.43226 13.8609 8.73931 14 7.99998 14ZM10.0975 11.2358L10.5691 10.7642L8.33331 8.52817V5.33333H7.66665V8.80517L10.0975 11.2358ZM3.93848 2.28467L4.41031 2.75633L2.08965 5.077L1.61798 4.60517L3.93848 2.28467ZM12.0615 2.28467L14.382 4.60517L13.9103 5.077L11.5896 2.75633L12.0615 2.28467ZM7.99998 13.3333C9.29143 13.3333 10.3921 12.8784 11.302 11.9687C12.2118 11.0588 12.6666 9.95811 12.6666 8.66667C12.6666 7.37522 12.2118 6.27456 11.302 5.36467C10.3921 4.45489 9.29143 4 7.99998 4C6.70854 4 5.60787 4.45489 4.69798 5.36467C3.7882 6.27456 3.33331 7.37522 3.33331 8.66667C3.33331 9.95811 3.7882 11.0588 4.69798 11.9687C5.60787 12.8784 6.70854 13.3333 7.99998 13.3333Z" fill="#1C1B1F"/>
</g>
</svg>
