<svg width="16" height="16" viewBox="0 0 16 16" fill="none" xmlns="http://www.w3.org/2000/svg">
<mask id="mask0_4169_1744" style="mask-type:alpha" maskUnits="userSpaceOnUse" x="0" y="0" width="16" height="16">
<rect width="16" height="16" fill="#D9D9D9"/>
</mask>
<g mask="url(#mask0_4169_1744)">
<path d="M3.74369 12.6665H12.2564C12.376 12.6665 12.4744 12.6281 12.5514 12.5512C12.6282 12.4742 12.6667 12.3758 12.6667 12.2562V6.40884L9.59102 3.33317H3.74369C3.62402 3.33317 3.52569 3.37161 3.44869 3.4485C3.3718 3.5255 3.33335 3.62384 3.33335 3.7435V12.2562C3.33335 12.3758 3.3718 12.4742 3.44869 12.5512C3.52569 12.6281 3.62402 12.6665 3.74369 12.6665ZM3.74369 13.3332C3.44535 13.3332 3.19124 13.2283 2.98135 13.0185C2.77158 12.8086 2.66669 12.5545 2.66669 12.2562V3.7435C2.66669 3.44517 2.77158 3.19106 2.98135 2.98117C3.19124 2.77139 3.44535 2.6665 3.74369 2.6665H9.85902L13.3334 6.14084V12.2562C13.3334 12.5545 13.2285 12.8086 13.0187 13.0185C12.8088 13.2283 12.5547 13.3332 12.2564 13.3332H3.74369ZM5.00002 10.6665H11V9.99984H5.00002V10.6665ZM5.00002 8.33317H11V7.6665H5.00002V8.33317ZM5.00002 5.99984H8.82052V5.33317H5.00002V5.99984Z" fill="#1C1B1F"/>
</g>
</svg>
