<svg width="16" height="17" viewBox="0 0 16 17" fill="none" xmlns="http://www.w3.org/2000/svg">
<mask id="mask0_4169_1947" style="mask-type:alpha" maskUnits="userSpaceOnUse" x="0" y="0" width="16" height="17">
<rect y="0.54541" width="16" height="16" fill="#D9D9D9"/>
</mask>
<g mask="url(#mask0_4169_1947)">
<path d="M5.6 11.4172L8 9.01724L10.4 11.4172L10.8718 10.9454L8.47183 8.54541L10.8718 6.14541L10.4 5.67358L8 8.07358L5.6 5.67358L5.12817 6.14541L7.52817 8.54541L5.12817 10.9454L5.6 11.4172ZM8.00217 14.5454C7.1725 14.5454 6.39244 14.388 5.662 14.0731C4.93167 13.7582 4.29633 13.3309 3.756 12.7911C3.21567 12.2513 2.78794 11.6165 2.47283 10.8867C2.15761 10.1571 2 9.37736 2 8.54758C2 7.71791 2.15744 6.93785 2.47233 6.20741C2.78722 5.47708 3.21456 4.84174 3.75433 4.30141C4.29411 3.76108 4.92889 3.33335 5.65867 3.01824C6.38833 2.70302 7.16806 2.54541 7.99783 2.54541C8.8275 2.54541 9.60756 2.70286 10.338 3.01774C11.0683 3.33263 11.7037 3.75997 12.244 4.29974C12.7843 4.83952 13.2121 5.4743 13.5272 6.20408C13.8424 6.93374 14 7.71347 14 8.54324C14 9.37291 13.8426 10.153 13.5277 10.8834C13.2128 11.6137 12.7854 12.2491 12.2457 12.7894C11.7059 13.3297 11.0711 13.7575 10.3413 14.0726C9.61167 14.3878 8.83194 14.5454 8.00217 14.5454ZM8 13.8787C9.48889 13.8787 10.75 13.3621 11.7833 12.3287C12.8167 11.2954 13.3333 10.0343 13.3333 8.54541C13.3333 7.05652 12.8167 5.79541 11.7833 4.76208C10.75 3.72874 9.48889 3.21208 8 3.21208C6.51111 3.21208 5.25 3.72874 4.21667 4.76208C3.18333 5.79541 2.66667 7.05652 2.66667 8.54541C2.66667 10.0343 3.18333 11.2954 4.21667 12.3287C5.25 13.3621 6.51111 13.8787 8 13.8787Z" fill="#CF0000"/>
</g>
</svg>
