<svg width="16" height="17" viewBox="0 0 16 17" fill="none" xmlns="http://www.w3.org/2000/svg">
<mask id="mask0_4169_1916" style="mask-type:alpha" maskUnits="userSpaceOnUse" x="0" y="0" width="16" height="17">
<rect y="0.0454102" width="16" height="16" fill="#D9D9D9"/>
</mask>
<g mask="url(#mask0_4169_1916)">
<path d="M7.96665 12.0456C8.19998 12.0456 8.3972 11.965 8.55831 11.8039C8.71942 11.6428 8.79998 11.4456 8.79998 11.2122C8.79998 10.9789 8.71942 10.7817 8.55831 10.6206C8.3972 10.4595 8.19998 10.3789 7.96665 10.3789C7.73331 10.3789 7.53609 10.4595 7.37498 10.6206C7.21387 10.7817 7.13331 10.9789 7.13331 11.2122C7.13331 11.4456 7.21387 11.6428 7.37498 11.8039C7.53609 11.965 7.73331 12.0456 7.96665 12.0456ZM7.36665 9.47891H8.59998C8.59998 9.11224 8.64165 8.82335 8.72498 8.61224C8.80831 8.40113 9.04442 8.11224 9.43331 7.74557C9.7222 7.45668 9.94998 7.18168 10.1166 6.92057C10.2833 6.65946 10.3666 6.34557 10.3666 5.97891C10.3666 5.35668 10.1389 4.87891 9.68331 4.54557C9.22776 4.21224 8.68887 4.04557 8.06665 4.04557C7.43331 4.04557 6.91942 4.21224 6.52498 4.54557C6.13053 4.87891 5.85554 5.27891 5.69998 5.74557L6.79998 6.17891C6.85553 5.97891 6.98053 5.76224 7.17498 5.52891C7.36942 5.29557 7.66665 5.17891 8.06665 5.17891C8.4222 5.17891 8.68887 5.27613 8.86665 5.47057C9.04442 5.66502 9.13331 5.87891 9.13331 6.11224C9.13331 6.33446 9.06665 6.5428 8.93331 6.73724C8.79998 6.93168 8.63331 7.11224 8.43331 7.27891C7.94442 7.71224 7.64442 8.04002 7.53331 8.26224C7.4222 8.48446 7.36665 8.89002 7.36665 9.47891ZM7.99998 14.7122C7.07776 14.7122 6.21109 14.5372 5.39998 14.1872C4.58887 13.8372 3.88331 13.3622 3.28331 12.7622C2.68331 12.1622 2.20831 11.4567 1.85831 10.6456C1.50831 9.83446 1.33331 8.96779 1.33331 8.04557C1.33331 7.12335 1.50831 6.25668 1.85831 5.44557C2.20831 4.63446 2.68331 3.92891 3.28331 3.32891C3.88331 2.72891 4.58887 2.25391 5.39998 1.90391C6.21109 1.55391 7.07776 1.37891 7.99998 1.37891C8.9222 1.37891 9.78887 1.55391 10.6 1.90391C11.4111 2.25391 12.1166 2.72891 12.7166 3.32891C13.3166 3.92891 13.7916 4.63446 14.1416 5.44557C14.4916 6.25668 14.6666 7.12335 14.6666 8.04557C14.6666 8.96779 14.4916 9.83446 14.1416 10.6456C13.7916 11.4567 13.3166 12.1622 12.7166 12.7622C12.1166 13.3622 11.4111 13.8372 10.6 14.1872C9.78887 14.5372 8.9222 14.7122 7.99998 14.7122ZM7.99998 13.3789C9.48887 13.3789 10.75 12.8622 11.7833 11.8289C12.8166 10.7956 13.3333 9.53446 13.3333 8.04557C13.3333 6.55668 12.8166 5.29557 11.7833 4.26224C10.75 3.22891 9.48887 2.71224 7.99998 2.71224C6.51109 2.71224 5.24998 3.22891 4.21665 4.26224C3.18331 5.29557 2.66665 6.55668 2.66665 8.04557C2.66665 9.53446 3.18331 10.7956 4.21665 11.8289C5.24998 12.8622 6.51109 13.3789 7.99998 13.3789Z" fill="#0032E3"/>
</g>
</svg>
