<svg width="24" height="25" viewBox="0 0 24 25" fill="none" xmlns="http://www.w3.org/2000/svg">
<mask id="mask0_4169_1934" style="mask-type:alpha" maskUnits="userSpaceOnUse" x="0" y="0" width="24" height="25">
<rect y="0.54541" width="24" height="24" fill="#D9D9D9"/>
</mask>
<g mask="url(#mask0_4169_1934)">
<path d="M10 16.1224L15.577 12.5454L10 8.96841V16.1224ZM12.0033 21.5454C10.7587 21.5454 9.58867 21.3092 8.493 20.8369C7.3975 20.3646 6.4445 19.7236 5.634 18.9139C4.8235 18.1042 4.18192 17.1521 3.70925 16.0574C3.23642 14.9629 3 13.7933 3 12.5487C3 11.3042 3.23617 10.1341 3.7085 9.03841C4.18083 7.94291 4.82183 6.98991 5.6315 6.17941C6.44117 5.36891 7.39333 4.72733 8.488 4.25466C9.5825 3.78183 10.7521 3.54541 11.9967 3.54541C13.2413 3.54541 14.4113 3.78158 15.507 4.25391C16.6025 4.72624 17.5555 5.36724 18.366 6.17691C19.1765 6.98658 19.8181 7.93874 20.2908 9.03341C20.7636 10.1279 21 11.2975 21 12.5422C21 13.7867 20.7638 14.9567 20.2915 16.0524C19.8192 17.1479 19.1782 18.1009 18.3685 18.9114C17.5588 19.7219 16.6067 20.3635 15.512 20.8362C14.4175 21.309 13.2479 21.5454 12.0033 21.5454ZM12 20.5454C14.2333 20.5454 16.125 19.7704 17.675 18.2204C19.225 16.6704 20 14.7787 20 12.5454C20 10.3121 19.225 8.42041 17.675 6.87041C16.125 5.32041 14.2333 4.54541 12 4.54541C9.76667 4.54541 7.875 5.32041 6.325 6.87041C4.775 8.42041 4 10.3121 4 12.5454C4 14.7787 4.775 16.6704 6.325 18.2204C7.875 19.7704 9.76667 20.5454 12 20.5454Z" fill="#0032E3"/>
</g>
</svg>
