<svg width="108" height="49" viewBox="0 0 108 49" fill="none" xmlns="http://www.w3.org/2000/svg">
<rect y="0.5" width="108" height="48" rx="4" fill="white"/>
<path d="M11.969 36.182L22.112 36.182C23.538 36.182 24.596 35.837 25.286 35.147C25.976 34.4417 26.321 33.468 26.321 32.226C26.321 30.9993 25.976 30.041 25.286 29.351C24.596 28.6457 23.538 28.293 22.112 28.293L11.969 28.293L11.969 26.2L22.089 26.2C23.423 26.2 24.55 26.4683 25.47 27.005C26.3747 27.5417 27.0493 28.27 27.494 29.19C27.9387 30.0947 28.161 31.1143 28.161 32.249C28.161 33.3837 27.9387 34.411 27.494 35.331C27.0493 36.2357 26.3747 36.9563 25.47 37.493C24.55 38.0143 23.423 38.275 22.089 38.275L11.969 38.275L11.969 36.182ZM16.661 11.9905C17.995 11.9905 19.1067 12.4505 19.996 13.3705C20.87 14.2752 21.307 15.6628 21.307 17.5335L21.307 20.6155L28 20.6155L28 22.7085L11.969 22.7085L11.969 17.5335C11.969 15.7242 12.406 14.3518 13.28 13.4165C14.154 12.4658 15.281 11.9905 16.661 11.9905ZM19.582 17.5335C19.582 16.3682 19.329 15.5095 18.823 14.9575C18.317 14.4055 17.5963 14.1295 16.661 14.1295C14.683 14.1295 13.694 15.2642 13.694 17.5335L13.694 20.6155L19.582 20.6155L19.582 17.5335Z" fill="black"/>
<path d="M43.728 37.752C42.072 37.752 40.584 37.464 39.264 36.888C37.968 36.288 36.948 35.472 36.204 34.44C35.46 33.384 35.076 32.172 35.052 30.804H38.544C38.664 31.98 39.144 32.976 39.984 33.792C40.848 34.584 42.096 34.98 43.728 34.98C45.288 34.98 46.512 34.596 47.4 33.828C48.312 33.036 48.768 32.028 48.768 30.804C48.768 29.844 48.504 29.064 47.976 28.464C47.448 27.864 46.788 27.408 45.996 27.096C45.204 26.784 44.136 26.448 42.792 26.088C41.136 25.656 39.804 25.224 38.796 24.792C37.812 24.36 36.96 23.688 36.24 22.776C35.544 21.84 35.196 20.592 35.196 19.032C35.196 17.664 35.544 16.452 36.24 15.396C36.936 14.34 37.908 13.524 39.156 12.948C40.428 12.372 41.88 12.084 43.512 12.084C45.864 12.084 47.784 12.672 49.272 13.848C50.784 15.024 51.636 16.584 51.828 18.528H48.228C48.108 17.568 47.604 16.728 46.716 16.008C45.828 15.264 44.652 14.892 43.188 14.892C41.82 14.892 40.704 15.252 39.84 15.972C38.976 16.668 38.544 17.652 38.544 18.924C38.544 19.836 38.796 20.58 39.3 21.156C39.828 21.732 40.464 22.176 41.208 22.488C41.976 22.776 43.044 23.112 44.412 23.496C46.068 23.952 47.4 24.408 48.408 24.864C49.416 25.296 50.28 25.98 51 26.916C51.72 27.828 52.08 29.076 52.08 30.66C52.08 31.884 51.756 33.036 51.108 34.116C50.46 35.196 49.5 36.072 48.228 36.744C46.956 37.416 45.456 37.752 43.728 37.752ZM67.9169 37.5L60.1769 28.788V37.5H56.9009V10.86H60.1769V26.52L67.7729 17.772H72.3449L63.0569 27.6L72.3809 37.5H67.9169ZM77.1203 14.568C76.4963 14.568 75.9683 14.352 75.5363 13.92C75.1043 13.488 74.8883 12.96 74.8883 12.336C74.8883 11.712 75.1043 11.184 75.5363 10.752C75.9683 10.32 76.4963 10.104 77.1203 10.104C77.7203 10.104 78.2243 10.32 78.6323 10.752C79.0643 11.184 79.2803 11.712 79.2803 12.336C79.2803 12.96 79.0643 13.488 78.6323 13.92C78.2243 14.352 77.7203 14.568 77.1203 14.568ZM78.7043 17.772V37.5H75.4283V17.772H78.7043ZM87.5636 10.86V37.5H84.2876V10.86H87.5636ZM96.423 10.86V37.5H93.147V10.86H96.423Z" fill="black"/>
</svg>
