<svg width="24" height="25" viewBox="0 0 24 25" fill="none" xmlns="http://www.w3.org/2000/svg">
<mask id="mask0_4169_1617" style="mask-type:alpha" maskUnits="userSpaceOnUse" x="0" y="0" width="24" height="25">
<rect y="0.5" width="24" height="24" fill="#D9D9D9"/>
</mask>
<g mask="url(#mask0_4169_1617)">
<path d="M11.9965 21.8845C11.5513 21.8845 11.1714 21.7263 10.8568 21.41C10.5419 21.0937 10.3845 20.7134 10.3845 20.2693H13.6155C13.6155 20.7168 13.4569 21.0978 13.1398 21.4125C12.8228 21.7272 12.4417 21.8845 11.9965 21.8845ZM5 19.2693V18.2693H6.6155V10.3462C6.6155 9.03975 7.02892 7.89067 7.85575 6.899C8.68275 5.90733 9.73083 5.28975 11 5.04625V4.5C11 4.22217 11.097 3.98608 11.291 3.79175C11.485 3.59725 11.7206 3.5 11.9978 3.5C12.2749 3.5 12.5113 3.59725 12.7067 3.79175C12.9022 3.98608 13 4.22217 13 4.5V4.575C12.8552 4.80067 12.7283 5.02825 12.6192 5.25775C12.5102 5.48725 12.4257 5.7315 12.3655 5.9905C12.3045 5.98267 12.2451 5.97592 12.1872 5.97025C12.1294 5.96442 12.067 5.9615 12 5.9615C10.7847 5.9615 9.75008 6.38842 8.89625 7.24225C8.04242 8.09608 7.6155 9.13075 7.6155 10.3462V18.2693H16.3845V12.1905C16.5435 12.2212 16.7073 12.2452 16.876 12.2625C17.0445 12.2798 17.214 12.2821 17.3845 12.2692V18.2693H19V19.2693H5ZM16.9637 9.90375C16.2699 9.90375 15.6794 9.66092 15.1923 9.17525C14.7051 8.68958 14.4615 8.09983 14.4615 7.406C14.4615 6.71233 14.7043 6.12183 15.19 5.6345C15.6757 5.14733 16.2654 4.90375 16.9593 4.90375C17.6531 4.90375 18.2436 5.14658 18.7308 5.63225C19.2179 6.11792 19.4615 6.70767 19.4615 7.4015C19.4615 8.09533 19.2187 8.68583 18.733 9.173C18.2473 9.66017 17.6576 9.90375 16.9637 9.90375Z" fill="#1C1B1F"/>
</g>
</svg>
